<svg xmlns="http://www.w3.org/2000/svg" xmlns:xlink="http://www.w3.org/1999/xlink" viewBox="0 0 1224 1224"><defs><style>.cls-1{fill:#008cc9;}.cls-2{fill:#fff;}.cls-3{opacity:0.56;}.cls-4{fill:url(#radial-gradient);}.cls-5{fill:#edb63d;}.cls-6{opacity:0.68;fill:url(#radial-gradient-2);}.cls-7{fill:#006837;}.cls-8{fill:#b3b7b5;}.cls-9{opacity:0.22;fill:url(#White_Black);}</style><radialGradient id="radial-gradient" cx="624.4" cy="442.57" r="415.38" gradientUnits="userSpaceOnUse"><stop offset="0" stop-color="#76c4e2"/><stop offset="1" stop-color="#008cc9"/></radialGradient><radialGradient id="radial-gradient-2" cx="620.34" cy="546.75" r="246.31" gradientUnits="userSpaceOnUse"><stop offset="0.01" stop-color="#fcca45"/><stop offset="0.89" stop-color="#e59e03"/></radialGradient><linearGradient id="White_Black" x1="-555.25" y1="563.89" x2="-555.25" y2="803.07" gradientTransform="matrix(-1, 0, 0, 1, 95.04, 0)" gradientUnits="userSpaceOnUse"><stop offset="0" stop-color="#fff"/><stop offset="1"/></linearGradient></defs><title>Artboard 1</title><g id="Layer_1" data-name="Layer 1"><path class="cls-1" d="M367.4,894.76a49.51,49.51,0,0,0-13-7.84,34.61,34.61,0,0,0-12.63-2.55q-7.74,0-12.63,3.67a11.41,11.41,0,0,0-4.89,9.57,9.51,9.51,0,0,0,2.45,6.72,21.18,21.18,0,0,0,6.41,4.59,55.15,55.15,0,0,0,9,3.36q5,1.43,9.88,3.05,19.56,6.52,28.62,17.42t9.06,28.41a55.26,55.26,0,0,1-4,21.38A44.63,44.63,0,0,1,374,998.94a53.51,53.51,0,0,1-18.74,10.59,78.06,78.06,0,0,1-25.15,3.77q-29.13,0-54-17.31l17.11-32.18A69.61,69.61,0,0,0,311,975.62a42.6,42.6,0,0,0,17.32,3.87q9.76,0,14.56-4.48a13.89,13.89,0,0,0,3.56-16.19,13,13,0,0,0-4.07-4.69,32.85,32.85,0,0,0-7.43-4q-4.59-1.83-11.11-4.07-7.74-2.45-15.17-5.4a47.69,47.69,0,0,1-13.24-7.84A36.49,36.49,0,0,1,286,920.52q-3.55-7.42-3.56-18.84A54.28,54.28,0,0,1,286.24,881a45.82,45.82,0,0,1,10.59-15.88,47,47,0,0,1,16.7-10.29,63,63,0,0,1,22.1-3.67,97,97,0,0,1,23.83,3.16,105.22,105.22,0,0,1,23.83,9.27Z"/><path class="cls-1" d="M404.88,932.24a79.17,79.17,0,0,1,50.61-74.86,97.66,97.66,0,0,1,68.54,0,80.94,80.94,0,0,1,27,17.22,78.72,78.72,0,0,1,17.62,25.76,83.54,83.54,0,0,1,0,63.75A78.76,78.76,0,0,1,551,989.88a80.91,80.91,0,0,1-27,17.21,97.66,97.66,0,0,1-68.54,0,79.42,79.42,0,0,1-50.61-74.85Zm41.75,0a40.87,40.87,0,0,0,3.46,16.9,42.7,42.7,0,0,0,9.37,13.44,42.15,42.15,0,0,0,13.75,8.86,45.18,45.18,0,0,0,33.2,0,43.45,43.45,0,0,0,13.85-8.86,42,42,0,0,0,9.47-13.44,43,43,0,0,0,0-33.81,42,42,0,0,0-9.47-13.44A44.78,44.78,0,0,0,473.21,893a42.29,42.29,0,0,0-23.12,22.3A40.92,40.92,0,0,0,446.63,932.24Z"/><path class="cls-1" d="M637.27,855.45V975.21h47.86V1009H597.35V855.45Z"/><path class="cls-1" d="M803.26,982.34h-57L737.07,1009H694.5L753,855.45h43.59L855,1009H812.43ZM792.67,952l-17.92-51.12L756.82,952Z"/><path class="cls-1" d="M997.36,1009h-49.7L909.58,950V1009H869.66V855.45h62.12a61,61,0,0,1,22.4,3.77,42.14,42.14,0,0,1,25.16,25.36,52.61,52.61,0,0,1,3.15,18.33q0,17.52-8.45,28.41t-24.95,14.77Zm-87.78-84.93h7.53q11.82,0,18.13-4.89t6.32-14.05q0-9.17-6.32-14.06t-18.13-4.88h-7.53Z"/><path class="cls-1" d="M321.3,1076a28.14,28.14,0,0,0-7.36-4.43,19.73,19.73,0,0,0-7.13-1.43,11.56,11.56,0,0,0-7.13,2.07,6.45,6.45,0,0,0-2.76,5.4,5.38,5.38,0,0,0,1.38,3.8,11.91,11.91,0,0,0,3.62,2.58,30,30,0,0,0,5.06,1.9c1.88.54,3.74,1.11,5.58,1.73q11,3.67,16.15,9.83t5.12,16a31.36,31.36,0,0,1-2.24,12.08,25.14,25.14,0,0,1-6.56,9.25,30,30,0,0,1-10.58,6,44,44,0,0,1-14.2,2.13,52.26,52.26,0,0,1-30.47-9.77l9.66-18.17a39.14,39.14,0,0,0,10,6.67,24.18,24.18,0,0,0,9.78,2.18q5.52,0,8.22-2.53a7.69,7.69,0,0,0,2.7-5.75,7.77,7.77,0,0,0-.69-3.39,7.42,7.42,0,0,0-2.3-2.65,18.48,18.48,0,0,0-4.2-2.24c-1.72-.69-3.81-1.45-6.26-2.3-2.92-.92-5.77-1.93-8.57-3a27,27,0,0,1-7.48-4.42,20.61,20.61,0,0,1-5.29-7,24.63,24.63,0,0,1-2-10.64,30.7,30.7,0,0,1,2.13-11.67,25.91,25.91,0,0,1,6-9,26.68,26.68,0,0,1,9.43-5.81,35.67,35.67,0,0,1,12.48-2.07,55,55,0,0,1,13.45,1.78,59.54,59.54,0,0,1,13.46,5.24Z"/><path class="cls-1" d="M408.81,1082.76q-7.81-9.55-19.32-9.55a23.73,23.73,0,0,0-9.37,1.84,22.43,22.43,0,0,0-12.31,12.54A24.66,24.66,0,0,0,366,1097a25,25,0,0,0,1.78,9.54,23,23,0,0,0,12.37,12.65,22.84,22.84,0,0,0,9.2,1.84q10.8,0,19.43-9.2v26.68l-2.3.81a68,68,0,0,1-9.66,2.7,47.19,47.19,0,0,1-8.85.86A45.22,45.22,0,0,1,356.31,1130a47.47,47.47,0,0,1-10.06-14.6,46.9,46.9,0,0,1-.06-36.8,45.8,45.8,0,0,1,41.92-27.2,48.16,48.16,0,0,1,10.18,1.09,61.47,61.47,0,0,1,10.52,3.4Z"/><path class="cls-1" d="M418.81,1097.13a44.7,44.7,0,0,1,28.58-42.26,55.09,55.09,0,0,1,38.7,0,45.83,45.83,0,0,1,15.24,9.72,44.48,44.48,0,0,1,9.94,14.54,47.16,47.16,0,0,1,0,36,44.42,44.42,0,0,1-9.94,14.55,45.65,45.65,0,0,1-15.24,9.71,55.09,55.09,0,0,1-38.7,0,44.86,44.86,0,0,1-28.58-42.26Zm23.58,0a23.2,23.2,0,0,0,1.95,9.55,24.38,24.38,0,0,0,5.29,7.59,24.06,24.06,0,0,0,7.77,5,25.09,25.09,0,0,0,26.56-5,23.9,23.9,0,0,0,5.35-7.59,24.34,24.34,0,0,0,0-19.09A23.68,23.68,0,0,0,484,1080a24.57,24.57,0,0,0-7.82-5,25.55,25.55,0,0,0-18.74,0,23.9,23.9,0,0,0-13.06,12.6A23.12,23.12,0,0,0,442.39,1097.13Z"/><path class="cls-1" d="M599.59,1140.49H571.53L550,1107.14v33.35H527.49v-86.71h35.07a34.59,34.59,0,0,1,12.65,2.12,23.84,23.84,0,0,1,14.2,14.32,29.62,29.62,0,0,1,1.79,10.35q0,9.9-4.78,16T572.34,1105Zm-49.56-48h4.25q6.68,0,10.24-2.76a10.62,10.62,0,0,0,0-15.87q-3.57-2.76-10.24-2.76H550Z"/><path class="cls-1" d="M656.75,1072.87H630v14.49h25.3v19.09H630v15h26.8v19.09H607.41v-86.71h49.34Z"/><path class="cls-1" d="M733.8,1082.76q-7.83-9.55-19.32-9.55a23.78,23.78,0,0,0-9.38,1.84,22.45,22.45,0,0,0-12.3,12.54A24.66,24.66,0,0,0,691,1097a25,25,0,0,0,1.78,9.54,23,23,0,0,0,21.56,14.49q10.82,0,19.44-9.2v26.68l-2.3.81a68,68,0,0,1-9.66,2.7,47.3,47.3,0,0,1-8.86.86A45.22,45.22,0,0,1,681.3,1130a47.47,47.47,0,0,1-10.06-14.6,46.79,46.79,0,0,1-.06-36.8,45.78,45.78,0,0,1,41.92-27.2,48,48,0,0,1,10.17,1.09,61.28,61.28,0,0,1,10.53,3.4Z"/><path class="cls-1" d="M801.64,1125.42h-32.2l-5.17,15.07h-24l33-86.71h24.61l33,86.71h-24Zm-6-17.13-10.12-28.87-10.12,28.87Z"/><path class="cls-1" d="M911.24,1140.49H883.18l-21.51-33.35v33.35H839.13v-86.71h35.08a34.63,34.63,0,0,1,12.65,2.12,23.84,23.84,0,0,1,14.2,14.32,29.62,29.62,0,0,1,1.78,10.35q0,9.9-4.77,16T884,1105Zm-49.57-48h4.26q6.66,0,10.23-2.76a10.6,10.6,0,0,0,0-15.87q-3.57-2.76-10.23-2.76h-4.26Z"/><path class="cls-1" d="M919.06,1053.78h33.35a39.4,39.4,0,0,1,16.61,3.56,45.24,45.24,0,0,1,13.57,9.49,44,44,0,0,1,9.15,13.8,42.57,42.57,0,0,1,0,32.89,43.89,43.89,0,0,1-9.08,13.86,44.81,44.81,0,0,1-13.57,9.54,39.57,39.57,0,0,1-16.73,3.57H919.06Zm22.54,67.62h5.17a28.17,28.17,0,0,0,10.47-1.84,22.56,22.56,0,0,0,7.76-5.06,21.67,21.67,0,0,0,4.83-7.65,27.4,27.4,0,0,0,1.67-9.72,26.68,26.68,0,0,0-1.73-9.66,21.68,21.68,0,0,0-12.65-12.76,27.62,27.62,0,0,0-10.35-1.84H941.6Z"/><path class="cls-1" d="M230.51,800.06l-2.07-3.23a469.77,469.77,0,1,1,792.49,0l-2.06,3.23Z"/><path class="cls-2" d="M624.69,81.1c255.58,0,462.76,207.34,462.76,463.12A461.14,461.14,0,0,1,1015,793.06H234.35a461.14,461.14,0,0,1-72.42-248.84c0-255.78,207.18-463.12,462.76-463.12m0-14A477.27,477.27,0,0,0,222.54,800.59l4.13,6.47h796l4.13-6.47A476.87,476.87,0,0,0,624.69,67.1Z"/><g class="cls-3"><path class="cls-4" d="M1007.69,804.05a460.92,460.92,0,0,0,79.76-259.9c0-255.73-207.32-463-463.05-463S161.34,288.42,161.34,544.15a460.92,460.92,0,0,0,79.76,259.9Z"/></g><path class="cls-5" d="M620.34,801.06a254.31,254.31,0,1,1,179.82-74.48A252.67,252.67,0,0,1,620.34,801.06Z"/><path class="cls-2" d="M620.34,300.44c136,0,246.31,110.28,246.31,246.31S756.37,793.06,620.34,793.06,374,682.79,374,546.75,484.3,300.44,620.34,300.44m0-16a261.52,261.52,0,1,0,102.11,20.62,260.72,260.72,0,0,0-102.11-20.62Z"/><circle class="cls-6" cx="620.34" cy="546.75" r="246.31"/><path class="cls-7" d="M234.16,799.9A128.31,128.31,0,0,1,208,757.26l-1.11-3L519.55,440.93,648.36,516.3l271.7-156.22L867.5,334.22l166.71-13.46L962.68,452.24l-10-49L641.48,633,523.09,551.2,237.48,803.48Z"/><path class="cls-2" d="M1025.4,326.49q-30.29,55.67-60.56,111.32-4.41-21.62-8.83-43.22L641.38,626.86l-118.67-82L237.83,796.5a123.14,123.14,0,0,1-25.12-41L520.36,447.2l128,74.89L930.69,359.74l-44.71-22,139.42-11.25M1043,315l-18.42,1.49L885.18,327.77,849,330.69l32.56,16,11.27,5.55,16.59,8.16-261,150.1-123-71.95-6.68-3.9-5.45,5.47L205.63,748.47,201.12,753l2.21,6a132.88,132.88,0,0,0,27.16,44.3l6.64,7.18,7.32-6.47,91-80.34L523.47,557.54l112.22,77.55,5.88,4.06,5.75-4.24,114.9-84.83L949.35,411.93l1.39,6.84,4.3,21.05,5.49,26.85,13.09-24.08,60.57-111.32L1043,315Z"/><path class="cls-8" d="M243.3,805.41,523.06,557.86,636.29,636.7l54.88-37.15L849.53,703.44l58.31-31.53L1050.53,735l-1.18,4a245.77,245.77,0,0,1-31.1,66.66l-1.41,2.13Z"/><path class="cls-2" d="M523.41,563.89l112.85,78.57,55-37.21L849.29,709l58.76-31.76,136.75,60.5a240.85,240.85,0,0,1-30.5,65.37L255.79,800.7,523.41,563.89m-.7-12.07-5.59,4.95L348.25,706.2,249.5,793.59l-18.69,16.53,24.95.08,9.25,0,749.26,2.34,5.11,0,2.83-4.26a250.32,250.32,0,0,0,31.7-68l2.35-8-7.62-3.37-95.3-42.16-41.45-18.34-4.26-1.89-4.1,2.22-29.38,15.88-24.39,13.19L782,653.47l-85.6-56.16-5.29-3.47-5.24,3.55L658.41,616l-22.08,15L528.84,556.09l-6.13-4.27Z"/><path class="cls-9" d="M1014.3,803.07a241,241,0,0,0,30.5-65.37L908.05,677.2,849.29,709,691.21,605.25l-55,37.21L523.41,563.89,255.79,800.7Z"/><path class="cls-2" d="M232,810.14h-2.89c-.44-.51-.9-1.06-1.36-1.65s-.79-1-1.14-1.54l8.74-.52C234.24,807.66,233.13,808.9,232,810.14Z"/></g></svg>