<?xml version="1.0" encoding="utf-8"?>
<!-- Generator: Adobe Illustrator 22.0.1, SVG Export Plug-In . SVG Version: 6.00 Build 0)  -->
<svg version="1.1" xmlns="http://www.w3.org/2000/svg" xmlns:xlink="http://www.w3.org/1999/xlink" x="0px" y="0px"
	 viewBox="0 0 1224 1224" style="enable-background:new 0 0 1224 1224;" xml:space="preserve">
<style type="text/css">
	.st0{display:none;}
	.st1{display:inline;fill:#FFFFFF;}
	.st2{display:inline;}
	.st3{fill:#008CC9;}
	.st4{fill:#FFFFFF;}
	.st5{opacity:0.56;}
	.st6{fill:url(#SVGID_1_);}
	.st7{fill:#EDB63D;}
	.st8{opacity:0.68;fill:url(#SVGID_2_);}
	.st9{fill:#006837;}
	.st10{fill:#B3B7B5;}
	.st11{opacity:0.22;fill:url(#SVGID_3_);}
</style>
<g id="Layer_2">
</g>
<g id="Layer_1">
	<g id="Layer_2_1_" class="st0">
		<rect x="257.1" y="819.9" class="st1" width="712.5" height="207.5"/>
		<g class="st2">
			<path class="st3" d="M349.6,900.4c-4.3-3.5-8.7-6.1-13-7.8s-8.6-2.5-12.6-2.5c-5.2,0-9.4,1.2-12.6,3.7s-4.9,5.6-4.9,9.6
				c0,2.7,0.8,5,2.4,6.7c1.6,1.8,3.8,3.3,6.4,4.6s5.6,2.4,9,3.4c3.3,1,6.6,2,9.9,3.1c13,4.3,22.6,10.2,28.6,17.4
				c6,7.3,9.1,16.7,9.1,28.4c0,7.9-1.3,15-4,21.4c-2.6,6.4-6.5,11.8-11.6,16.4c-5.1,4.6-11.3,8.1-18.7,10.6
				c-7.4,2.5-15.8,3.8-25.2,3.8c-19.4,0-37.4-5.8-54-17.3l17.1-32.2c6,5.3,11.9,9.2,17.7,11.8c5.8,2.6,11.6,3.9,17.3,3.9
				c6.5,0,11.4-1.5,14.6-4.5s4.8-6.4,4.8-10.2c0-2.3-0.4-4.3-1.2-6c-0.8-1.7-2.2-3.3-4.1-4.7s-4.4-2.8-7.4-4s-6.8-2.6-11.1-4.1
				c-5.2-1.6-10.2-3.4-15.2-5.4s-9.4-4.6-13.2-7.8c-3.9-3.3-7-7.4-9.4-12.3c-2.4-5-3.6-11.2-3.6-18.8s1.3-14.5,3.8-20.7
				s6-11.5,10.6-15.9c4.5-4.4,10.1-7.8,16.7-10.3c6.6-2.4,14-3.7,22.1-3.7c7.6,0,15.5,1.1,23.8,3.2c8.3,2.1,16.2,5.2,23.8,9.3
				L349.6,900.4z"/>
			<path class="st3" d="M387.1,937.8c0-11.4,2.1-22,6.3-31.9c4.2-9.8,10-18.4,17.5-25.8c7.5-7.3,16.4-13.1,26.8-17.2
				c10.4-4.1,21.8-6.2,34.3-6.2c12.4,0,23.8,2.1,34.2,6.2c10.5,4.1,19.5,9.9,27,17.2s13.4,15.9,17.6,25.8c4.2,9.8,6.3,20.5,6.3,31.9
				s-2.1,22-6.3,31.9c-4.2,9.8-10.1,18.4-17.6,25.8s-16.5,13.1-27,17.2c-10.5,4.1-21.9,6.2-34.2,6.2c-12.5,0-23.9-2.1-34.3-6.2
				c-10.4-4.1-19.3-9.9-26.8-17.2s-13.3-15.9-17.5-25.8C389.2,959.9,387.1,949.2,387.1,937.8z M428.8,937.8c0,6.1,1.2,11.7,3.5,16.9
				s5.4,9.6,9.4,13.4c3.9,3.8,8.5,6.8,13.7,8.9c5.2,2.1,10.8,3.2,16.6,3.2c5.8,0,11.4-1.1,16.6-3.2c5.2-2.1,9.8-5.1,13.9-8.9
				c4-3.8,7.2-8.3,9.5-13.4c2.3-5.2,3.5-10.8,3.5-16.9c0-6.1-1.2-11.7-3.5-16.9s-5.5-9.6-9.5-13.4c-4-3.8-8.6-6.8-13.9-8.9
				c-5.2-2.1-10.8-3.2-16.6-3.2c-5.8,0-11.4,1.1-16.6,3.2c-5.2,2.1-9.8,5.1-13.7,8.9c-3.9,3.8-7.1,8.3-9.4,13.4
				C430,926.1,428.8,931.7,428.8,937.8z"/>
			<path class="st3" d="M619.4,861v119.8h47.9v33.8h-87.8V861H619.4z"/>
			<path class="st3" d="M785.4,987.9h-57l-9.2,26.7h-42.6L735.1,861h43.6l58.5,153.6h-42.6L785.4,987.9z M774.8,957.6l-17.9-51.1
				L739,957.6H774.8z"/>
			<path class="st3" d="M979.5,1014.6h-49.7l-38.1-59.1v59.1h-39.9V861H914c8.6,0,16,1.3,22.4,3.8s11.6,5.9,15.8,10.3
				c4.1,4.3,7.3,9.4,9.4,15.1c2.1,5.7,3.2,11.8,3.2,18.3c0,11.7-2.8,21.2-8.5,28.4c-5.6,7.3-14,12.2-25,14.8L979.5,1014.6z
				 M891.8,929.7h7.5c7.9,0,13.9-1.6,18.1-4.9c4.2-3.3,6.3-7.9,6.3-14.1c0-6.1-2.1-10.8-6.3-14.1s-10.3-4.9-18.1-4.9h-7.5V929.7z"/>
			<path class="st3" d="M303.5,1081.6c-2.5-2-4.9-3.5-7.4-4.4c-2.5-1-4.8-1.4-7.1-1.4c-2.9,0-5.3,0.7-7.1,2.1
				c-1.8,1.4-2.8,3.2-2.8,5.4c0,1.5,0.5,2.8,1.4,3.8s2.1,1.9,3.6,2.6s3.2,1.4,5.1,1.9s3.7,1.1,5.6,1.7c7.4,2.5,12.7,5.7,16.2,9.8
				c3.4,4.1,5.1,9.4,5.1,16c0,4.4-0.7,8.5-2.2,12.1s-3.7,6.7-6.6,9.3c-2.9,2.6-6.4,4.6-10.6,6s-8.9,2.1-14.2,2.1
				c-11,0-21.1-3.3-30.5-9.8l9.7-18.2c3.4,3,6.7,5.2,10,6.7s6.6,2.2,9.8,2.2c3.7,0,6.4-0.8,8.2-2.5c1.8-1.7,2.7-3.6,2.7-5.8
				c0-1.3-0.2-2.4-0.7-3.4s-1.2-1.8-2.3-2.6c-1.1-0.8-2.5-1.6-4.2-2.2c-1.7-0.7-3.8-1.5-6.3-2.3c-2.9-0.9-5.8-1.9-8.6-3
				c-2.8-1.1-5.3-2.6-7.5-4.4s-4-4.2-5.3-7s-2-6.3-2-10.6c0-4.3,0.7-8.2,2.1-11.7s3.4-6.5,6-9s5.7-4.4,9.4-5.8
				c3.7-1.4,7.9-2.1,12.5-2.1c4.3,0,8.8,0.6,13.5,1.8c4.7,1.2,9.2,2.9,13.5,5.2L303.5,1081.6z"/>
			<path class="st3" d="M391,1088.4c-5.2-6.4-11.7-9.5-19.3-9.5c-3.4,0-6.5,0.6-9.4,1.8c-2.9,1.2-5.3,2.9-7.4,5s-3.7,4.6-4.9,7.5
				c-1.2,2.9-1.8,6.1-1.8,9.4c0,3.5,0.6,6.6,1.8,9.5c1.2,2.9,2.8,5.4,4.9,7.6c2.1,2.1,4.6,3.8,7.4,5.1c2.8,1.2,5.9,1.8,9.2,1.8
				c7.2,0,13.7-3.1,19.4-9.2v26.7l-2.3,0.8c-3.5,1.2-6.7,2.1-9.7,2.7s-5.9,0.9-8.9,0.9c-6,0-11.7-1.1-17.2-3.4s-10.3-5.4-14.5-9.5
				s-7.5-9-10.1-14.6c-2.5-5.6-3.8-11.8-3.8-18.5s1.2-12.8,3.7-18.3c2.5-5.6,5.8-10.3,10-14.4c4.2-4,9-7.2,14.5-9.4
				c5.5-2.3,11.3-3.4,17.4-3.4c3.5,0,6.8,0.4,10.2,1.1c3.3,0.7,6.8,1.9,10.5,3.4v26.9H391z"/>
			<path class="st3" d="M401,1102.7c0-6.4,1.2-12.4,3.6-18s5.7-10.4,9.9-14.5c4.2-4.1,9.3-7.4,15.1-9.7c5.9-2.3,12.3-3.5,19.4-3.5
				c7,0,13.4,1.2,19.3,3.5s11,5.6,15.2,9.7c4.3,4.1,7.6,9,9.9,14.5c2.4,5.6,3.6,11.6,3.6,18s-1.2,12.4-3.6,18s-5.7,10.4-9.9,14.5
				c-4.3,4.1-9.3,7.4-15.2,9.7c-5.9,2.3-12.3,3.5-19.3,3.5c-7.1,0-13.5-1.2-19.4-3.5s-10.9-5.6-15.1-9.7s-7.5-9-9.9-14.5
				S401,1109.2,401,1102.7z M424.6,1102.7c0,3.5,0.7,6.6,2,9.5s3.1,5.4,5.3,7.6c2.2,2.1,4.8,3.8,7.8,5s6.1,1.8,9.4,1.8
				s6.4-0.6,9.4-1.8c3-1.2,5.6-2.9,7.8-5c2.3-2.1,4-4.7,5.3-7.6s2-6.1,2-9.5s-0.7-6.6-2-9.5s-3.1-5.4-5.3-7.6
				c-2.3-2.1-4.9-3.8-7.8-5c-3-1.2-6.1-1.8-9.4-1.8s-6.4,0.6-9.4,1.8c-3,1.2-5.5,2.9-7.8,5c-2.2,2.1-4,4.7-5.3,7.6
				C425.2,1096.1,424.6,1099.3,424.6,1102.7z"/>
			<path class="st3" d="M581.8,1146.1h-28.1l-21.5-33.3v33.3h-22.5v-86.7h35.1c4.8,0,9,0.7,12.6,2.1s6.6,3.4,8.9,5.8
				c2.3,2.5,4.1,5.3,5.3,8.5s1.8,6.7,1.8,10.3c0,6.6-1.6,11.9-4.8,16s-7.9,6.9-14.1,8.3L581.8,1146.1z M532.2,1098.1h4.3
				c4.4,0,7.9-0.9,10.2-2.8c2.4-1.8,3.6-4.5,3.6-7.9s-1.2-6.1-3.6-7.9c-2.4-1.8-5.8-2.8-10.2-2.8h-4.3V1098.1z"/>
			<path class="st3" d="M638.9,1078.5h-26.8v14.5h25.3v19.1h-25.3v15h26.8v19.1h-49.3v-86.7h49.3V1078.5z"/>
			<path class="st3" d="M716,1088.4c-5.2-6.4-11.7-9.5-19.3-9.5c-3.4,0-6.5,0.6-9.4,1.8c-2.9,1.2-5.3,2.9-7.4,5
				c-2.1,2.1-3.7,4.6-4.9,7.5s-1.8,6.1-1.8,9.4c0,3.5,0.6,6.6,1.8,9.5s2.8,5.4,4.9,7.6c2.1,2.1,4.6,3.8,7.4,5.1
				c2.8,1.2,5.9,1.8,9.2,1.8c7.2,0,13.7-3.1,19.4-9.2v26.7l-2.3,0.8c-3.5,1.2-6.7,2.1-9.7,2.7s-5.9,0.9-8.9,0.9
				c-6,0-11.7-1.1-17.2-3.4s-10.3-5.4-14.5-9.5s-7.5-9-10.1-14.6c-2.5-5.6-3.8-11.8-3.8-18.5s1.2-12.8,3.7-18.3
				c2.5-5.6,5.8-10.3,10-14.4c4.2-4,9-7.2,14.5-9.4c5.5-2.3,11.3-3.4,17.4-3.4c3.5,0,6.8,0.4,10.2,1.1c3.3,0.7,6.8,1.9,10.5,3.4
				v26.9H716z"/>
			<path class="st3" d="M783.8,1131h-32.2l-5.2,15.1h-24l33-86.7H780l33,86.7h-24L783.8,1131z M777.8,1113.9l-10.1-28.9l-10.1,28.9
				H777.8z"/>
			<path class="st3" d="M893.4,1146.1h-28.1l-21.5-33.3v33.3h-22.5v-86.7h35.1c4.8,0,9,0.7,12.6,2.1s6.6,3.4,8.9,5.8
				c2.3,2.5,4.1,5.3,5.3,8.5s1.8,6.7,1.8,10.3c0,6.6-1.6,11.9-4.8,16s-7.9,6.9-14.1,8.3L893.4,1146.1z M843.8,1098.1h4.3
				c4.4,0,7.9-0.9,10.2-2.8c2.4-1.8,3.6-4.5,3.6-7.9s-1.2-6.1-3.6-7.9c-2.4-1.8-5.8-2.8-10.2-2.8h-4.3V1098.1z"/>
			<path class="st3" d="M901.2,1059.4h33.3c5.9,0,11.4,1.2,16.6,3.6c5.2,2.4,9.7,5.5,13.6,9.5c3.9,3.9,6.9,8.5,9.1,13.8
				c2.2,5.3,3.3,10.8,3.3,16.5s-1.1,11.1-3.3,16.4s-5.2,9.9-9.1,13.9c-3.9,4-8.4,7.2-13.6,9.5c-5.2,2.4-10.8,3.6-16.7,3.6h-33.3
				v-86.8H901.2z M923.8,1127h5.2c3.9,0,7.4-0.6,10.5-1.8c3.1-1.2,5.7-2.9,7.8-5.1c2.1-2.1,3.7-4.7,4.8-7.6c1.1-3,1.7-6.2,1.7-9.7
				c0-3.4-0.6-6.7-1.7-9.7c-1.1-3-2.8-5.6-4.9-7.7c-2.1-2.1-4.7-3.8-7.8-5.1c-3.1-1.2-6.5-1.8-10.4-1.8h-5.2L923.8,1127L923.8,1127z
				"/>
		</g>
	</g>
	<g>
		<path class="st3" d="M367.4,894.8c-4.3-3.5-8.7-6.1-13-7.8c-4.3-1.7-8.6-2.5-12.6-2.5c-5.2,0-9.4,1.2-12.6,3.7s-4.9,5.6-4.9,9.6
			c0,2.7,0.8,5,2.4,6.7c1.6,1.8,3.8,3.3,6.4,4.6c2.6,1.3,5.6,2.4,9,3.4c3.3,1,6.6,2,9.9,3.1c13,4.3,22.6,10.2,28.6,17.4
			c6,7.3,9.1,16.7,9.1,28.4c0,7.9-1.3,15-4,21.4c-2.6,6.4-6.5,11.8-11.6,16.4c-5.1,4.6-11.3,8.1-18.7,10.6
			c-7.4,2.5-15.8,3.8-25.2,3.8c-19.4,0-37.4-5.8-54-17.3l17.1-32.2c6,5.3,11.9,9.2,17.7,11.8c5.8,2.6,11.6,3.9,17.3,3.9
			c6.5,0,11.4-1.5,14.6-4.5c3.2-3,4.8-6.4,4.8-10.2c0-2.3-0.4-4.3-1.2-6c-0.8-1.7-2.2-3.3-4.1-4.7c-1.9-1.4-4.4-2.8-7.4-4
			s-6.8-2.6-11.1-4.1c-5.2-1.6-10.2-3.4-15.2-5.4c-5-2-9.4-4.6-13.2-7.8c-3.9-3.3-7-7.4-9.4-12.3c-2.4-5-3.6-11.2-3.6-18.8
			c0-7.6,1.3-14.5,3.8-20.7c2.5-6.2,6-11.5,10.6-15.9c4.5-4.4,10.1-7.8,16.7-10.3c6.6-2.4,14-3.7,22.1-3.7c7.6,0,15.5,1.1,23.8,3.2
			c8.3,2.1,16.2,5.2,23.8,9.3L367.4,894.8z"/>
		<path class="st3" d="M404.9,932.2c0-11.4,2.1-22,6.3-31.9c4.2-9.8,10-18.4,17.5-25.8c7.5-7.3,16.4-13.1,26.8-17.2
			c10.4-4.1,21.8-6.2,34.3-6.2c12.4,0,23.8,2.1,34.2,6.2c10.5,4.1,19.5,9.9,27,17.2s13.4,15.9,17.6,25.8c4.2,9.8,6.3,20.5,6.3,31.9
			c0,11.4-2.1,22-6.3,31.9c-4.2,9.8-10.1,18.4-17.6,25.8s-16.5,13.1-27,17.2c-10.5,4.1-21.9,6.2-34.2,6.2c-12.5,0-23.9-2.1-34.3-6.2
			c-10.4-4.1-19.3-9.9-26.8-17.2c-7.5-7.3-13.3-15.9-17.5-25.8C407,954.3,404.9,943.6,404.9,932.2z M446.6,932.2
			c0,6.1,1.2,11.7,3.5,16.9c2.3,5.2,5.4,9.6,9.4,13.4c3.9,3.8,8.5,6.8,13.7,8.9c5.2,2.1,10.8,3.2,16.6,3.2c5.8,0,11.4-1.1,16.6-3.2
			c5.2-2.1,9.8-5.1,13.9-8.9c4-3.8,7.2-8.3,9.5-13.4c2.3-5.2,3.5-10.8,3.5-16.9c0-6.1-1.2-11.7-3.5-16.9c-2.3-5.2-5.5-9.6-9.5-13.4
			c-4-3.8-8.6-6.8-13.9-8.9c-5.2-2.1-10.8-3.2-16.6-3.2c-5.8,0-11.4,1.1-16.6,3.2c-5.2,2.1-9.8,5.1-13.7,8.9
			c-3.9,3.8-7.1,8.3-9.4,13.4C447.8,920.5,446.6,926.1,446.6,932.2z"/>
		<path class="st3" d="M637.3,855.5v119.8h47.9v33.8h-87.8V855.5H637.3z"/>
		<path class="st3" d="M803.3,982.3h-57l-9.2,26.7h-42.6L753,855.5h43.6L855,1009h-42.6L803.3,982.3z M792.7,952l-17.9-51.1
			L756.8,952H792.7z"/>
		<path class="st3" d="M997.4,1009h-49.7L909.6,950v59.1h-39.9V855.5h62.1c8.6,0,16,1.3,22.4,3.8c6.4,2.5,11.6,5.9,15.8,10.3
			c4.1,4.3,7.3,9.4,9.4,15.1c2.1,5.7,3.2,11.8,3.2,18.3c0,11.7-2.8,21.2-8.5,28.4c-5.6,7.3-14,12.2-25,14.8L997.4,1009z
			 M909.6,924.1h7.5c7.9,0,13.9-1.6,18.1-4.9c4.2-3.3,6.3-7.9,6.3-14.1c0-6.1-2.1-10.8-6.3-14.1c-4.2-3.3-10.3-4.9-18.1-4.9h-7.5
			V924.1z"/>
		<path class="st3" d="M321.3,1076c-2.5-2-4.9-3.5-7.4-4.4c-2.5-1-4.8-1.4-7.1-1.4c-2.9,0-5.3,0.7-7.1,2.1c-1.8,1.4-2.8,3.2-2.8,5.4
			c0,1.5,0.5,2.8,1.4,3.8c0.9,1,2.1,1.9,3.6,2.6c1.5,0.7,3.2,1.4,5.1,1.9c1.9,0.5,3.7,1.1,5.6,1.7c7.4,2.5,12.7,5.7,16.2,9.8
			c3.4,4.1,5.1,9.4,5.1,16c0,4.4-0.7,8.5-2.2,12.1c-1.5,3.6-3.7,6.7-6.6,9.3c-2.9,2.6-6.4,4.6-10.6,6c-4.2,1.4-8.9,2.1-14.2,2.1
			c-11,0-21.1-3.3-30.5-9.8l9.7-18.2c3.4,3,6.7,5.2,10,6.7c3.3,1.5,6.6,2.2,9.8,2.2c3.7,0,6.4-0.8,8.2-2.5c1.8-1.7,2.7-3.6,2.7-5.8
			c0-1.3-0.2-2.4-0.7-3.4c-0.5-1-1.2-1.8-2.3-2.6c-1.1-0.8-2.5-1.6-4.2-2.2c-1.7-0.7-3.8-1.5-6.3-2.3c-2.9-0.9-5.8-1.9-8.6-3
			c-2.8-1.1-5.3-2.6-7.5-4.4c-2.2-1.8-4-4.2-5.3-7c-1.3-2.8-2-6.3-2-10.6c0-4.3,0.7-8.2,2.1-11.7c1.4-3.5,3.4-6.5,6-9
			c2.6-2.5,5.7-4.4,9.4-5.8c3.7-1.4,7.9-2.1,12.5-2.1c4.3,0,8.8,0.6,13.5,1.8c4.7,1.2,9.2,2.9,13.5,5.2L321.3,1076z"/>
		<path class="st3" d="M408.8,1082.8c-5.2-6.4-11.7-9.5-19.3-9.5c-3.4,0-6.5,0.6-9.4,1.8c-2.9,1.2-5.3,2.9-7.4,5
			c-2.1,2.1-3.7,4.6-4.9,7.5c-1.2,2.9-1.8,6.1-1.8,9.4c0,3.5,0.6,6.6,1.8,9.5c1.2,2.9,2.8,5.4,4.9,7.6c2.1,2.1,4.6,3.8,7.4,5.1
			c2.8,1.2,5.9,1.8,9.2,1.8c7.2,0,13.7-3.1,19.4-9.2v26.7l-2.3,0.8c-3.5,1.2-6.7,2.1-9.7,2.7c-3,0.6-5.9,0.9-8.9,0.9
			c-6,0-11.7-1.1-17.2-3.4c-5.5-2.3-10.3-5.4-14.5-9.5c-4.2-4.1-7.5-9-10.1-14.6c-2.5-5.6-3.8-11.8-3.8-18.5s1.2-12.8,3.7-18.3
			c2.5-5.6,5.8-10.3,10-14.4c4.2-4,9-7.2,14.5-9.4c5.5-2.3,11.3-3.4,17.4-3.4c3.5,0,6.8,0.4,10.2,1.1c3.3,0.7,6.8,1.9,10.5,3.4
			V1082.8z"/>
		<path class="st3" d="M418.8,1097.1c0-6.4,1.2-12.4,3.6-18c2.4-5.6,5.7-10.4,9.9-14.5c4.2-4.1,9.3-7.4,15.1-9.7
			c5.9-2.3,12.3-3.5,19.4-3.5c7,0,13.4,1.2,19.3,3.5c5.9,2.3,11,5.6,15.2,9.7c4.3,4.1,7.6,9,9.9,14.5c2.4,5.6,3.6,11.6,3.6,18
			c0,6.4-1.2,12.4-3.6,18c-2.4,5.6-5.7,10.4-9.9,14.5c-4.3,4.1-9.3,7.4-15.2,9.7c-5.9,2.3-12.3,3.5-19.3,3.5
			c-7.1,0-13.5-1.2-19.4-3.5c-5.9-2.3-10.9-5.6-15.1-9.7c-4.2-4.1-7.5-9-9.9-14.5C420,1109.6,418.8,1103.6,418.8,1097.1z
			 M442.4,1097.1c0,3.5,0.7,6.6,2,9.5c1.3,2.9,3.1,5.4,5.3,7.6c2.2,2.1,4.8,3.8,7.8,5c3,1.2,6.1,1.8,9.4,1.8c3.3,0,6.4-0.6,9.4-1.8
			c3-1.2,5.6-2.9,7.8-5c2.3-2.1,4-4.7,5.3-7.6c1.3-2.9,2-6.1,2-9.5c0-3.4-0.7-6.6-2-9.5c-1.3-2.9-3.1-5.4-5.3-7.6
			c-2.3-2.1-4.9-3.8-7.8-5c-3-1.2-6.1-1.8-9.4-1.8c-3.3,0-6.4,0.6-9.4,1.8c-3,1.2-5.5,2.9-7.8,5c-2.2,2.1-4,4.7-5.3,7.6
			C443,1090.5,442.4,1093.7,442.4,1097.1z"/>
		<path class="st3" d="M599.6,1140.5h-28.1l-21.5-33.3v33.3h-22.5v-86.7h35.1c4.8,0,9,0.7,12.6,2.1c3.6,1.4,6.6,3.4,8.9,5.8
			c2.3,2.5,4.1,5.3,5.3,8.5c1.2,3.2,1.8,6.7,1.8,10.3c0,6.6-1.6,11.9-4.8,16c-3.2,4.1-7.9,6.9-14.1,8.3L599.6,1140.5z M550,1092.5
			h4.3c4.4,0,7.9-0.9,10.2-2.8c2.4-1.8,3.6-4.5,3.6-7.9c0-3.4-1.2-6.1-3.6-7.9c-2.4-1.8-5.8-2.8-10.2-2.8H550V1092.5z"/>
		<path class="st3" d="M656.7,1072.9H630v14.5h25.3v19.1H630v15h26.8v19.1h-49.3v-86.7h49.3V1072.9z"/>
		<path class="st3" d="M733.8,1082.8c-5.2-6.4-11.7-9.5-19.3-9.5c-3.4,0-6.5,0.6-9.4,1.8c-2.9,1.2-5.3,2.9-7.4,5
			c-2.1,2.1-3.7,4.6-4.9,7.5c-1.2,2.9-1.8,6.1-1.8,9.4c0,3.5,0.6,6.6,1.8,9.5c1.2,2.9,2.8,5.4,4.9,7.6c2.1,2.1,4.6,3.8,7.4,5.1
			c2.8,1.2,5.9,1.8,9.2,1.8c7.2,0,13.7-3.1,19.4-9.2v26.7l-2.3,0.8c-3.5,1.2-6.7,2.1-9.7,2.7c-3,0.6-5.9,0.9-8.9,0.9
			c-6,0-11.7-1.1-17.2-3.4c-5.5-2.3-10.3-5.4-14.5-9.5c-4.2-4.1-7.5-9-10.1-14.6c-2.5-5.6-3.8-11.8-3.8-18.5s1.2-12.8,3.7-18.3
			c2.5-5.6,5.8-10.3,10-14.4c4.2-4,9-7.2,14.5-9.4c5.5-2.3,11.3-3.4,17.4-3.4c3.5,0,6.8,0.4,10.2,1.1c3.3,0.7,6.8,1.9,10.5,3.4
			V1082.8z"/>
		<path class="st3" d="M801.6,1125.4h-32.2l-5.2,15.1h-24l33-86.7h24.6l33,86.7h-24L801.6,1125.4z M795.7,1108.3l-10.1-28.9
			l-10.1,28.9H795.7z"/>
		<path class="st3" d="M911.2,1140.5h-28.1l-21.5-33.3v33.3h-22.5v-86.7h35.1c4.8,0,9,0.7,12.6,2.1c3.6,1.4,6.6,3.4,8.9,5.8
			c2.3,2.5,4.1,5.3,5.3,8.5c1.2,3.2,1.8,6.7,1.8,10.3c0,6.6-1.6,11.9-4.8,16c-3.2,4.1-7.9,6.9-14.1,8.3L911.2,1140.5z M861.7,1092.5
			h4.3c4.4,0,7.9-0.9,10.2-2.8c2.4-1.8,3.6-4.5,3.6-7.9c0-3.4-1.2-6.1-3.6-7.9c-2.4-1.8-5.8-2.8-10.2-2.8h-4.3V1092.5z"/>
		<path class="st3" d="M919.1,1053.8h33.3c5.9,0,11.4,1.2,16.6,3.6c5.2,2.4,9.7,5.5,13.6,9.5c3.9,3.9,6.9,8.5,9.1,13.8
			c2.2,5.3,3.3,10.8,3.3,16.5c0,5.7-1.1,11.1-3.3,16.4c-2.2,5.3-5.2,9.9-9.1,13.9c-3.9,4-8.4,7.2-13.6,9.5
			c-5.2,2.4-10.8,3.6-16.7,3.6h-33.3V1053.8z M941.6,1121.4h5.2c3.9,0,7.4-0.6,10.5-1.8c3.1-1.2,5.7-2.9,7.8-5.1
			c2.1-2.1,3.7-4.7,4.8-7.6c1.1-3,1.7-6.2,1.7-9.7c0-3.4-0.6-6.7-1.7-9.7c-1.1-3-2.8-5.6-4.9-7.7c-2.1-2.1-4.7-3.8-7.8-5.1
			c-3.1-1.2-6.5-1.8-10.4-1.8h-5.2V1121.4z"/>
	</g>
	<g>
		<path class="st3" d="M230.5,800.1l-2.1-3.2c-48.1-75.4-73.5-162.8-73.5-252.6c0-63.5,12.4-125,36.9-183
			c23.7-56,57.5-106.3,100.7-149.4s93.4-77.1,149.3-100.7c57.9-24.5,119.4-36.9,182.9-36.9S749.6,86.5,807.5,111
			c55.9,23.7,106.2,57.6,149.3,100.7s77,93.4,100.7,149.4c24.5,58,36.9,119.5,36.9,183c0,89.9-25.4,177.2-73.5,252.6l-2.1,3.2H230.5
			z"/>
		<path class="st4" d="M624.7,81.1c255.6,0,462.8,207.3,462.8,463.1c0,91.6-26.6,177-72.4,248.8H234.3
			c-45.8-71.9-72.4-157.3-72.4-248.8C161.9,288.4,369.1,81.1,624.7,81.1 M624.7,67.1c-64.4,0-126.8,12.6-185.6,37.5
			c-56.8,24-107.8,58.4-151.5,102.2c-43.8,43.8-78.2,94.8-102.2,151.7c-24.9,58.8-37.5,121.3-37.5,185.7
			c0,91.2,25.8,179.8,74.6,256.4l4.1,6.5h7.7H1015h7.7l4.1-6.5c48.8-76.5,74.6-165.2,74.6-256.4c0-64.4-12.6-126.9-37.5-185.7
			c-24-56.8-58.4-107.8-102.2-151.7C918,163,867,128.6,810.3,104.6C751.5,79.7,689,67.1,624.7,67.1L624.7,67.1z"/>
	</g>
	<g class="st5">
		<radialGradient id="SVGID_1_" cx="624.3953" cy="442.574" r="415.3822" gradientUnits="userSpaceOnUse">
			<stop  offset="0" style="stop-color:#76C4E2"/>
			<stop  offset="0.9996" style="stop-color:#008CC9"/>
		</radialGradient>
		<path class="st6" d="M1007.7,804c50.3-74.1,79.8-163.6,79.8-259.9c0-255.7-207.3-463.1-463.1-463.1
			c-255.7,0-463.1,207.3-463.1,463.1c0,96.3,29.4,185.8,79.8,259.9H1007.7z"/>
	</g>
	<g>
		<path class="st7" d="M620.3,801.1c-67.9,0-131.8-26.5-179.8-74.5c-48-48-74.5-111.9-74.5-179.8c0-67.9,26.5-131.8,74.5-179.8
			c48-48,111.9-74.5,179.8-74.5c67.9,0,131.8,26.5,179.8,74.5c48,48,74.5,111.9,74.5,179.8c0,67.9-26.5,131.8-74.5,179.8
			S688.3,801.1,620.3,801.1z"/>
		<path class="st4" d="M620.3,300.4c136,0,246.3,110.3,246.3,246.3S756.4,793.1,620.3,793.1S374,682.8,374,546.8
			S484.3,300.4,620.3,300.4 M620.3,284.4c-35.4,0-69.8,6.9-102.1,20.6c-31.2,13.2-59.3,32.1-83.4,56.2c-24.1,24.1-43,52.1-56.2,83.4
			C365,477,358,511.3,358,546.8s6.9,69.8,20.6,102.1c13.2,31.2,32.1,59.3,56.2,83.4c24.1,24.1,52.1,43,83.4,56.2
			c32.3,13.7,66.7,20.6,102.1,20.6s69.8-6.9,102.1-20.6c31.2-13.2,59.3-32.1,83.4-56.2c24.1-24.1,43-52.1,56.2-83.4
			c13.7-32.3,20.6-66.7,20.6-102.1S875.7,477,862,444.6c-13.2-31.2-32.1-59.3-56.2-83.4c-24.1-24.1-52.1-43-83.4-56.2
			C690.1,291.4,655.7,284.4,620.3,284.4L620.3,284.4z"/>
	</g>
	<radialGradient id="SVGID_2_" cx="620.3381" cy="546.7523" r="246.3116" gradientUnits="userSpaceOnUse">
		<stop  offset="9.735577e-03" style="stop-color:#FCCA45"/>
		<stop  offset="0.8944" style="stop-color:#E59E03"/>
	</radialGradient>
	<circle class="st8" cx="620.3" cy="546.8" r="246.3"/>
	<g>
		<path class="st9" d="M234.2,799.9c-5.9-6.4-11.2-13.5-15.7-21c-4.1-6.9-7.6-14.2-10.4-21.7l-1.1-3l312.6-313.3l128.8,75.4
			l271.7-156.2l-52.6-25.9l166.7-13.5l-71.5,131.5l-10-49L641.5,633l-118.4-81.8L237.5,803.5L234.2,799.9z"/>
		<path class="st4" d="M1025.4,326.5c-20.2,37.1-40.4,74.2-60.6,111.3c-2.9-14.4-5.9-28.8-8.8-43.2
			C851.1,472,746.3,549.4,641.4,626.9c-39.6-27.3-79.1-54.7-118.7-82c-95,83.9-189.9,167.8-284.9,251.6
			c-4.7-5.1-10.1-11.7-15.1-20.1c-4.6-7.6-7.8-14.8-10-20.8C315.3,652.8,417.8,550,520.4,447.2c42.7,25,85.3,49.9,128,74.9
			c94.1-54.1,188.2-108.2,282.3-162.3c-14.9-7.3-29.8-14.7-44.7-22C932.5,334,978.9,330.2,1025.4,326.5 M1043,315l-18.4,1.5
			l-139.4,11.3l-36.2,2.9l32.6,16l11.3,5.5l16.6,8.2L648.4,510.5l-123-72l-6.7-3.9l-5.5,5.5L205.6,748.5l-4.5,4.5l2.2,6
			c2.9,7.8,6.5,15.4,10.8,22.5c4.7,7.8,10.2,15.1,16.4,21.8l6.6,7.2l7.3-6.5l91-80.3l188.1-166.1l112.2,77.6l5.9,4.1l5.7-4.2
			l114.9-84.8l187.1-138.1l1.4,6.8l4.3,21l5.5,26.9l13.1-24.1l60.6-111.3L1043,315L1043,315z"/>
	</g>
	<g>
		<path class="st10" d="M243.3,805.4l279.8-247.6l113.2,78.8l54.9-37.2l158.4,103.9l58.3-31.5l142.7,63.1l-1.2,4
			c-3.5,11.7-7.8,23.3-13,34.4c-5.2,11.1-11.3,22-18.1,32.2l-1.4,2.1L243.3,805.4z"/>
		<path class="st4" d="M523.4,563.9c37.6,26.2,75.2,52.4,112.8,78.6c18.3-12.4,36.6-24.8,55-37.2c52.7,34.6,105.4,69.1,158.1,103.7
			c19.6-10.6,39.2-21.2,58.8-31.8c45.6,20.2,91.2,40.3,136.8,60.5c-2.9,10-7,21.5-12.8,33.8c-5.8,12.4-11.9,22.9-17.8,31.6
			c-252.8-0.8-505.7-1.6-758.5-2.4C345,721.8,434.2,642.8,523.4,563.9 M522.7,551.8l-5.6,5L348.2,706.2l-98.8,87.4l-18.7,16.5
			l25,0.1l9.3,0l749.3,2.3l5.1,0l2.8-4.3c6.9-10.4,13.2-21.5,18.4-32.9c5.3-11.3,9.7-23.1,13.3-35.1l2.4-8l-7.6-3.4l-95.3-42.2
			l-41.4-18.3l-4.3-1.9l-4.1,2.2l-29.4,15.9l-24.4,13.2L782,653.5l-85.6-56.2l-5.3-3.5l-5.2,3.5L658.4,616l-22.1,14.9l-107.5-74.8
			L522.7,551.8L522.7,551.8z"/>
	</g>
	
		<linearGradient id="SVGID_3_" gradientUnits="userSpaceOnUse" x1="-555.2534" y1="563.8893" x2="-555.2534" y2="803.073" gradientTransform="matrix(-1 0 0 1 95.0413 0)">
		<stop  offset="0" style="stop-color:#FFFFFF"/>
		<stop  offset="1" style="stop-color:#000000"/>
	</linearGradient>
	<path class="st11" d="M1014.3,803.1c5.6-8.4,11.5-18.4,17-30.1c6.1-12.9,10.4-24.9,13.5-35.3c-45.6-20.2-91.2-40.3-136.8-60.5
		c-19.6,10.6-39.2,21.2-58.8,31.8c-52.7-34.6-105.4-69.1-158.1-103.7c-18.3,12.4-36.6,24.8-55,37.2c-37.6-26.2-75.2-52.4-112.8-78.6
		C434.2,642.8,345,721.8,255.8,800.7C508.6,801.5,761.5,802.3,1014.3,803.1z"/>
	<path class="st4" d="M232,810.1c-1,0-1.9,0-2.9,0c-0.4-0.5-0.9-1.1-1.4-1.6c-0.4-0.5-0.8-1-1.1-1.5c2.9-0.2,5.8-0.3,8.7-0.5
		C234.2,807.7,233.1,808.9,232,810.1z"/>
</g>
</svg>
