<?xml version="1.0" encoding="utf-8"?>
<!-- Generator: Adobe Illustrator 22.0.1, SVG Export Plug-In . SVG Version: 6.00 Build 0)  -->
<svg version="1.1" id="Layer_1" xmlns="http://www.w3.org/2000/svg" xmlns:xlink="http://www.w3.org/1999/xlink" x="0px" y="0px"
	 viewBox="0 0 1224 1224" style="enable-background:new 0 0 1224 1224;" xml:space="preserve">
<style type="text/css">
	.st0{fill:#FFFFFF;}
	.st1{fill:#008CC9;}
	.st2{opacity:0.56;}
	.st3{fill:url(#SVGID_1_);}
	.st4{fill:#EDB63D;}
	.st5{opacity:0.68;fill:url(#SVGID_2_);}
	.st6{fill:#006837;}
	.st7{fill:#B3B7B5;}
	.st8{opacity:0.22;fill:url(#SVGID_3_);}
</style>
<g id="Layer_1_1_">
</g>
<rect x="257.1" y="819.9" class="st0" width="712.5" height="207.5"/>
<g>
	<path class="st1" d="M349.6,900.4c-4.3-3.5-8.7-6.1-13-7.8c-4.3-1.7-8.6-2.5-12.6-2.5c-5.2,0-9.4,1.2-12.6,3.7s-4.9,5.6-4.9,9.6
		c0,2.7,0.8,5,2.4,6.7c1.6,1.8,3.8,3.3,6.4,4.6c2.6,1.3,5.6,2.4,9,3.4c3.3,1,6.6,2,9.9,3.1c13,4.3,22.6,10.2,28.6,17.4
		c6,7.3,9.1,16.7,9.1,28.4c0,7.9-1.3,15-4,21.4c-2.6,6.4-6.5,11.8-11.6,16.4c-5.1,4.6-11.3,8.1-18.7,10.6
		c-7.4,2.5-15.8,3.8-25.2,3.8c-19.4,0-37.4-5.8-54-17.3l17.1-32.2c6,5.3,11.9,9.2,17.7,11.8c5.8,2.6,11.6,3.9,17.3,3.9
		c6.5,0,11.4-1.5,14.6-4.5c3.2-3,4.8-6.4,4.8-10.2c0-2.3-0.4-4.3-1.2-6c-0.8-1.7-2.2-3.3-4.1-4.7c-1.9-1.4-4.4-2.8-7.4-4
		s-6.8-2.6-11.1-4.1c-5.2-1.6-10.2-3.4-15.2-5.4c-5-2-9.4-4.6-13.2-7.8c-3.9-3.3-7-7.4-9.4-12.3c-2.4-5-3.6-11.2-3.6-18.8
		c0-7.6,1.3-14.5,3.8-20.7c2.5-6.2,6-11.5,10.6-15.9c4.5-4.4,10.1-7.8,16.7-10.3c6.6-2.4,14-3.7,22.1-3.7c7.6,0,15.5,1.1,23.8,3.2
		c8.3,2.1,16.2,5.2,23.8,9.3L349.6,900.4z"/>
	<path class="st1" d="M387.1,937.8c0-11.4,2.1-22,6.3-31.9c4.2-9.8,10-18.4,17.5-25.8c7.5-7.3,16.4-13.1,26.8-17.2
		c10.4-4.1,21.8-6.2,34.3-6.2c12.4,0,23.8,2.1,34.2,6.2c10.5,4.1,19.5,9.9,27,17.2s13.4,15.9,17.6,25.8c4.2,9.8,6.3,20.5,6.3,31.9
		c0,11.4-2.1,22-6.3,31.9c-4.2,9.8-10.1,18.4-17.6,25.8s-16.5,13.1-27,17.2c-10.5,4.1-21.9,6.2-34.2,6.2c-12.5,0-23.9-2.1-34.3-6.2
		c-10.4-4.1-19.3-9.9-26.8-17.2c-7.5-7.3-13.3-15.9-17.5-25.8C389.2,959.9,387.1,949.2,387.1,937.8z M428.8,937.8
		c0,6.1,1.2,11.7,3.5,16.9c2.3,5.2,5.4,9.6,9.4,13.4c3.9,3.8,8.5,6.8,13.7,8.9c5.2,2.1,10.8,3.2,16.6,3.2c5.8,0,11.4-1.1,16.6-3.2
		c5.2-2.1,9.8-5.1,13.9-8.9c4-3.8,7.2-8.3,9.5-13.4c2.3-5.2,3.5-10.8,3.5-16.9c0-6.1-1.2-11.7-3.5-16.9c-2.3-5.2-5.5-9.6-9.5-13.4
		c-4-3.8-8.6-6.8-13.9-8.9c-5.2-2.1-10.8-3.2-16.6-3.2c-5.8,0-11.4,1.1-16.6,3.2c-5.2,2.1-9.8,5.1-13.7,8.9
		c-3.9,3.8-7.1,8.3-9.4,13.4C430,926.1,428.8,931.7,428.8,937.8z"/>
	<path class="st1" d="M619.4,861v119.8h47.9v33.8h-87.8V861H619.4z"/>
	<path class="st1" d="M785.4,987.9h-57l-9.2,26.7h-42.6L735.1,861h43.6l58.5,153.6h-42.6L785.4,987.9z M774.8,957.6l-17.9-51.1
		L739,957.6H774.8z"/>
	<path class="st1" d="M979.5,1014.6h-49.7l-38.1-59.1v59.1h-39.9V861H914c8.6,0,16,1.3,22.4,3.8c6.4,2.5,11.6,5.9,15.8,10.3
		c4.1,4.3,7.3,9.4,9.4,15.1c2.1,5.7,3.2,11.8,3.2,18.3c0,11.7-2.8,21.2-8.5,28.4c-5.6,7.3-14,12.2-25,14.8L979.5,1014.6z
		 M891.8,929.7h7.5c7.9,0,13.9-1.6,18.1-4.9c4.2-3.3,6.3-7.9,6.3-14.1c0-6.1-2.1-10.8-6.3-14.1c-4.2-3.3-10.3-4.9-18.1-4.9h-7.5
		V929.7z"/>
	<path class="st1" d="M303.5,1081.6c-2.5-2-4.9-3.5-7.4-4.4c-2.5-1-4.8-1.4-7.1-1.4c-2.9,0-5.3,0.7-7.1,2.1
		c-1.8,1.4-2.8,3.2-2.8,5.4c0,1.5,0.5,2.8,1.4,3.8c0.9,1,2.1,1.9,3.6,2.6c1.5,0.7,3.2,1.4,5.1,1.9c1.9,0.5,3.7,1.1,5.6,1.7
		c7.4,2.5,12.7,5.7,16.2,9.8c3.4,4.1,5.1,9.4,5.1,16c0,4.4-0.7,8.5-2.2,12.1c-1.5,3.6-3.7,6.7-6.6,9.3c-2.9,2.6-6.4,4.6-10.6,6
		c-4.2,1.4-8.9,2.1-14.2,2.1c-11,0-21.1-3.3-30.5-9.8l9.7-18.2c3.4,3,6.7,5.2,10,6.7c3.3,1.5,6.6,2.2,9.8,2.2c3.7,0,6.4-0.8,8.2-2.5
		c1.8-1.7,2.7-3.6,2.7-5.8c0-1.3-0.2-2.4-0.7-3.4c-0.5-1-1.2-1.8-2.3-2.6c-1.1-0.8-2.5-1.6-4.2-2.2c-1.7-0.7-3.8-1.5-6.3-2.3
		c-2.9-0.9-5.8-1.9-8.6-3c-2.8-1.1-5.3-2.6-7.5-4.4c-2.2-1.8-4-4.2-5.3-7c-1.3-2.8-2-6.3-2-10.6c0-4.3,0.7-8.2,2.1-11.7
		c1.4-3.5,3.4-6.5,6-9c2.6-2.5,5.7-4.4,9.4-5.8c3.7-1.4,7.9-2.1,12.5-2.1c4.3,0,8.8,0.6,13.5,1.8c4.7,1.2,9.2,2.9,13.5,5.2
		L303.5,1081.6z"/>
	<path class="st1" d="M391,1088.4c-5.2-6.4-11.7-9.5-19.3-9.5c-3.4,0-6.5,0.6-9.4,1.8c-2.9,1.2-5.3,2.9-7.4,5
		c-2.1,2.1-3.7,4.6-4.9,7.5c-1.2,2.9-1.8,6.1-1.8,9.4c0,3.5,0.6,6.6,1.8,9.5c1.2,2.9,2.8,5.4,4.9,7.6c2.1,2.1,4.6,3.8,7.4,5.1
		c2.8,1.2,5.9,1.8,9.2,1.8c7.2,0,13.7-3.1,19.4-9.2v26.7l-2.3,0.8c-3.5,1.2-6.7,2.1-9.7,2.7c-3,0.6-5.9,0.9-8.9,0.9
		c-6,0-11.7-1.1-17.2-3.4c-5.5-2.3-10.3-5.4-14.5-9.5c-4.2-4.1-7.5-9-10.1-14.6c-2.5-5.6-3.8-11.8-3.8-18.5s1.2-12.8,3.7-18.3
		c2.5-5.6,5.8-10.3,10-14.4c4.2-4,9-7.2,14.5-9.4c5.5-2.3,11.3-3.4,17.4-3.4c3.5,0,6.8,0.4,10.2,1.1c3.3,0.7,6.8,1.9,10.5,3.4
		V1088.4z"/>
	<path class="st1" d="M401,1102.7c0-6.4,1.2-12.4,3.6-18c2.4-5.6,5.7-10.4,9.9-14.5c4.2-4.1,9.3-7.4,15.1-9.7
		c5.9-2.3,12.3-3.5,19.4-3.5c7,0,13.4,1.2,19.3,3.5c5.9,2.3,11,5.6,15.2,9.7c4.3,4.1,7.6,9,9.9,14.5c2.4,5.6,3.6,11.6,3.6,18
		c0,6.4-1.2,12.4-3.6,18c-2.4,5.6-5.7,10.4-9.9,14.5c-4.3,4.1-9.3,7.4-15.2,9.7c-5.9,2.3-12.3,3.5-19.3,3.5
		c-7.1,0-13.5-1.2-19.4-3.5c-5.9-2.3-10.9-5.6-15.1-9.7c-4.2-4.1-7.5-9-9.9-14.5C402.2,1115.2,401,1109.2,401,1102.7z M424.6,1102.7
		c0,3.5,0.7,6.6,2,9.5c1.3,2.9,3.1,5.4,5.3,7.6c2.2,2.1,4.8,3.8,7.8,5c3,1.2,6.1,1.8,9.4,1.8c3.3,0,6.4-0.6,9.4-1.8
		c3-1.2,5.6-2.9,7.8-5c2.3-2.1,4-4.7,5.3-7.6c1.3-2.9,2-6.1,2-9.5c0-3.4-0.7-6.6-2-9.5c-1.3-2.9-3.1-5.4-5.3-7.6
		c-2.3-2.1-4.9-3.8-7.8-5c-3-1.2-6.1-1.8-9.4-1.8c-3.3,0-6.4,0.6-9.4,1.8c-3,1.2-5.5,2.9-7.8,5c-2.2,2.1-4,4.7-5.3,7.6
		C425.2,1096.1,424.6,1099.3,424.6,1102.7z"/>
	<path class="st1" d="M581.8,1146.1h-28.1l-21.5-33.3v33.3h-22.5v-86.7h35.1c4.8,0,9,0.7,12.6,2.1c3.6,1.4,6.6,3.4,8.9,5.8
		c2.3,2.5,4.1,5.3,5.3,8.5c1.2,3.2,1.8,6.7,1.8,10.3c0,6.6-1.6,11.9-4.8,16c-3.2,4.1-7.9,6.9-14.1,8.3L581.8,1146.1z M532.2,1098.1
		h4.3c4.4,0,7.9-0.9,10.2-2.8c2.4-1.8,3.6-4.5,3.6-7.9c0-3.4-1.2-6.1-3.6-7.9c-2.4-1.8-5.8-2.8-10.2-2.8h-4.3V1098.1z"/>
	<path class="st1" d="M638.9,1078.5h-26.8v14.5h25.3v19.1h-25.3v15h26.8v19.1h-49.3v-86.7h49.3V1078.5z"/>
	<path class="st1" d="M716,1088.4c-5.2-6.4-11.7-9.5-19.3-9.5c-3.4,0-6.5,0.6-9.4,1.8c-2.9,1.2-5.3,2.9-7.4,5
		c-2.1,2.1-3.7,4.6-4.9,7.5c-1.2,2.9-1.8,6.1-1.8,9.4c0,3.5,0.6,6.6,1.8,9.5c1.2,2.9,2.8,5.4,4.9,7.6c2.1,2.1,4.6,3.8,7.4,5.1
		c2.8,1.2,5.9,1.8,9.2,1.8c7.2,0,13.7-3.1,19.4-9.2v26.7l-2.3,0.8c-3.5,1.2-6.7,2.1-9.7,2.7c-3,0.6-5.9,0.9-8.9,0.9
		c-6,0-11.7-1.1-17.2-3.4c-5.5-2.3-10.3-5.4-14.5-9.5c-4.2-4.1-7.5-9-10.1-14.6c-2.5-5.6-3.8-11.8-3.8-18.5s1.2-12.8,3.7-18.3
		c2.5-5.6,5.8-10.3,10-14.4c4.2-4,9-7.2,14.5-9.4c5.5-2.3,11.3-3.4,17.4-3.4c3.5,0,6.8,0.4,10.2,1.1c3.3,0.7,6.8,1.9,10.5,3.4
		V1088.4z"/>
	<path class="st1" d="M783.8,1131h-32.2l-5.2,15.1h-24l33-86.7H780l33,86.7h-24L783.8,1131z M777.8,1113.9l-10.1-28.9l-10.1,28.9
		H777.8z"/>
	<path class="st1" d="M893.4,1146.1h-28.1l-21.5-33.3v33.3h-22.5v-86.7h35.1c4.8,0,9,0.7,12.6,2.1c3.6,1.4,6.6,3.4,8.9,5.8
		c2.3,2.5,4.1,5.3,5.3,8.5c1.2,3.2,1.8,6.7,1.8,10.3c0,6.6-1.6,11.9-4.8,16c-3.2,4.1-7.9,6.9-14.1,8.3L893.4,1146.1z M843.8,1098.1
		h4.3c4.4,0,7.9-0.9,10.2-2.8c2.4-1.8,3.6-4.5,3.6-7.9c0-3.4-1.2-6.1-3.6-7.9c-2.4-1.8-5.8-2.8-10.2-2.8h-4.3V1098.1z"/>
	<path class="st1" d="M901.2,1059.4h33.3c5.9,0,11.4,1.2,16.6,3.6c5.2,2.4,9.7,5.5,13.6,9.5c3.9,3.9,6.9,8.5,9.1,13.8
		c2.2,5.3,3.3,10.8,3.3,16.5c0,5.7-1.1,11.1-3.3,16.4c-2.2,5.3-5.2,9.9-9.1,13.9c-3.9,4-8.4,7.2-13.6,9.5
		c-5.2,2.4-10.8,3.6-16.7,3.6h-33.3V1059.4z M923.8,1127h5.2c3.9,0,7.4-0.6,10.5-1.8c3.1-1.2,5.7-2.9,7.8-5.1
		c2.1-2.1,3.7-4.7,4.8-7.6c1.1-3,1.7-6.2,1.7-9.7c0-3.4-0.6-6.7-1.7-9.7c-1.1-3-2.8-5.6-4.9-7.7c-2.1-2.1-4.7-3.8-7.8-5.1
		c-3.1-1.2-6.5-1.8-10.4-1.8h-5.2V1127z"/>
</g>
<g>
	<path class="st1" d="M997.2,815.4c45.8-71.9,72.4-157.3,72.4-248.8c0-255.8-207.2-463.1-462.8-463.1
		c-255.6,0-462.8,207.3-462.8,463.1c0,91.6,26.6,177,72.4,248.8H997.2z"/>
</g>
<g class="st2">
	<radialGradient id="SVGID_1_" cx="606.5731" cy="464.8888" r="415.3822" gradientUnits="userSpaceOnUse">
		<stop  offset="0" style="stop-color:#76C4E2"/>
		<stop  offset="0.9996" style="stop-color:#008CC9"/>
	</radialGradient>
	<path class="st3" d="M989.9,826.4c50.3-74.1,79.8-163.6,79.8-259.9c0-255.7-207.3-463.1-463.1-463.1
		c-255.7,0-463.1,207.3-463.1,463.1c0,96.3,29.4,185.8,79.8,259.9H989.9z"/>
</g>
<g>
	<path class="st4" d="M602.5,831.8c-70.2,0-136.2-27.3-185.8-77c-49.6-49.6-77-115.6-77-185.8s27.3-136.2,77-185.8
		c49.6-49.6,115.6-77,185.8-77c70.2,0,136.2,27.3,185.8,77c49.6,49.6,77,115.6,77,185.8s-27.3,136.2-77,185.8
		C738.7,804.5,672.7,831.8,602.5,831.8z"/>
	<path class="st0" d="M602.5,314.3c140.7,0,254.7,114,254.7,254.7s-114,254.7-254.7,254.7s-254.7-114-254.7-254.7
		S461.8,314.3,602.5,314.3 M602.5,298.3c-36.5,0-72,7.2-105.4,21.3c-32.2,13.6-61.2,33.2-86.1,58c-24.9,24.9-44.4,53.8-58,86.1
		c-14.1,33.4-21.3,68.8-21.3,105.4s7.2,72,21.3,105.4c13.6,32.2,33.2,61.2,58,86.1c24.9,24.9,53.8,44.4,86.1,58
		c33.4,14.1,68.8,21.3,105.4,21.3s72-7.2,105.4-21.3c32.2-13.6,61.2-33.2,86.1-58c24.9-24.9,44.4-53.8,58-86.1
		c14.1-33.4,21.3-68.8,21.3-105.4s-7.2-72-21.3-105.4c-13.6-32.2-33.2-61.2-58-86.1c-24.9-24.9-53.8-44.4-86.1-58
		C674.5,305.5,639.1,298.3,602.5,298.3L602.5,298.3z"/>
</g>
<radialGradient id="SVGID_2_" cx="602.5159" cy="569.067" r="254.7349" gradientUnits="userSpaceOnUse">
	<stop  offset="9.735577e-03" style="stop-color:#FCCA45"/>
	<stop  offset="0.8944" style="stop-color:#E59E03"/>
</radialGradient>
<circle class="st5" cx="602.5" cy="569.1" r="254.7"/>
<g>
	<path class="st6" d="M215.9,818.6c-4.1-4.9-7.9-10.2-11.3-15.5c-4.9-7.7-9.3-15.8-12.9-24.2l-1.3-3.1l311.4-312.4l128.8,75.4
		l271.7-156.2l-52.6-25.9l166.7-13.5l-71.5,131.5l-10-49L625.6,651.9l-120.2-83.3l-286.2,254L215.9,818.6z"/>
	<path class="st0" d="M1007.6,348.8c-20.2,37.1-40.4,74.2-60.6,111.3c-2.9-14.4-5.9-28.8-8.8-43.2
		C834,493.2,729.7,569.5,625.5,645.8c-40.2-27.8-80.4-55.7-120.5-83.5C409.9,646.6,314.8,731,219.8,815.4c-3.6-4.4-7.3-9.4-11-15
		c-5.4-8.4-9.5-16.4-12.5-23.5C298.4,674.4,400.4,572,502.5,469.5c42.7,25,85.3,49.9,128,74.9c94.1-54.1,188.2-108.2,282.3-162.3
		c-14.9-7.3-29.8-14.7-44.7-22C914.6,356.3,961.1,352.6,1007.6,348.8 M1025.2,337.3l-18.4,1.5l-139.4,11.3l-36.2,2.9l32.6,16
		l22.4,11l5.5,2.7L630.6,532.8l-123-72l-6.7-3.9l-5.5,5.5L189.2,769.8l-4.8,4.8l2.7,6.2c3.7,8.7,8.2,17.1,13.3,25
		c3.6,5.5,7.5,10.9,11.7,16l6.6,8l7.8-6.9l147-130.5L505.8,575l73.9,51.2l40.2,27.8l5.9,4.1l5.7-4.2l156.3-114.5l143.7-105.2
		l5.7,27.9l5.5,26.9l13.1-24.1l40.4-74.2l20.2-37.1L1025.2,337.3L1025.2,337.3z"/>
</g>
<g>
	<polygon class="st7" points="218.5,828.3 507.3,579.9 624.7,659 681.6,621.7 1007.9,828.8 	"/>
	<path class="st0" d="M507.7,586.2c39,26.3,78,52.5,117,78.8c19-12.4,38-24.9,57-37.3c103,65.4,206,130.8,309,196.1
		c-252.9-0.2-505.8-0.3-758.7-0.5C323.9,744.3,415.8,665.3,507.7,586.2 M507,573.6l-5.8,5L225.5,815.8L205,833.3l26.9,0l379.6,0.2
		l379.1,0.2l34.5,0L996,815.4l-154.5-98.1L687,619.2l-5.4-3.5l-5.4,3.5l-14.6,9.6L624.7,653l-82.7-55.7l-28.8-19.4L507,573.6
		L507,573.6z"/>
</g>
<linearGradient id="SVGID_3_" gradientUnits="userSpaceOnUse" x1="-515.4306" y1="586.2041" x2="-515.4306" y2="823.8019" gradientTransform="matrix(-1 0 0 1 97.0413 0)">
	<stop  offset="0" style="stop-color:#FFFFFF"/>
	<stop  offset="1" style="stop-color:#000000"/>
</linearGradient>
<path class="st8" d="M991.8,823.8C888.4,758.4,785,693.1,681.6,627.7c-19,12.4-38,24.9-57,37.3c-39-26.3-78-52.5-117-78.8
	c-91.5,78.5-183,157.1-274.6,235.6C486,822.5,738.9,823.1,991.8,823.8z"/>
</svg>
