<?xml version="1.0" encoding="utf-8"?>
<!-- Generator: Adobe Illustrator 22.0.1, SVG Export Plug-In . SVG Version: 6.00 Build 0)  -->
<svg version="1.1" xmlns="http://www.w3.org/2000/svg" xmlns:xlink="http://www.w3.org/1999/xlink" x="0px" y="0px"
	 viewBox="0 0 1224 1224" style="enable-background:new 0 0 1224 1224;" xml:space="preserve">
<style type="text/css">
	.st0{fill:#008CC9;}
	.st1{opacity:0.56;}
	.st2{fill:url(#SVGID_1_);}
	.st3{fill:#EDB63D;}
	.st4{fill:#FFFFFF;}
	.st5{opacity:0.68;fill:url(#SVGID_2_);}
	.st6{fill:#006837;}
	.st7{fill:#B3B7B5;}
	.st8{opacity:0.22;fill:url(#SVGID_3_);}
</style>
<g id="Layer_1">
</g>
<g id="Layer_2">
	<g>
		<circle class="st0" cx="611.3" cy="540.1" r="458.4"/>
	</g>
	<g class="st1">
		<radialGradient id="SVGID_1_" cx="610.1062" cy="540.1316" r="458.4008" gradientUnits="userSpaceOnUse">
			<stop  offset="0" style="stop-color:#76C4E2"/>
			<stop  offset="0.9996" style="stop-color:#008CC9"/>
		</radialGradient>
		<circle class="st2" cx="610.1" cy="540.1" r="458.4"/>
	</g>
	<g>
		<path class="st3" d="M611.3,802.9c-70.2,0-136.2-27.3-185.8-77c-49.6-49.6-77-115.6-77-185.8s27.3-136.2,77-185.8
			c49.6-49.6,115.6-77,185.8-77c70.2,0,136.2,27.3,185.8,77s77,115.6,77,185.8c0,70.2-27.3,136.2-77,185.8
			C747.4,775.5,681.5,802.9,611.3,802.9z"/>
		<path class="st4" d="M611.3,285.4c140.7,0,254.7,114,254.7,254.7S752,794.9,611.3,794.9s-254.7-114-254.7-254.7
			S470.6,285.4,611.3,285.4 M611.3,269.4c-36.5,0-72,7.2-105.4,21.3c-32.2,13.6-61.2,33.2-86.1,58c-24.9,24.9-44.4,53.8-58,86.1
			c-14.1,33.4-21.3,68.8-21.3,105.4s7.2,72,21.3,105.4c13.6,32.2,33.2,61.2,58,86.1c24.9,24.9,53.8,44.4,86.1,58
			c33.4,14.1,68.8,21.3,105.4,21.3c36.5,0,72-7.2,105.4-21.3c32.2-13.6,61.2-33.2,86.1-58c24.9-24.9,44.4-53.8,58-86.1
			c14.1-33.4,21.3-68.8,21.3-105.4s-7.2-72-21.3-105.4c-13.6-32.2-33.2-61.2-58-86.1c-24.9-24.9-53.8-44.4-86.1-58
			C683.3,276.6,647.8,269.4,611.3,269.4L611.3,269.4z"/>
	</g>
	<radialGradient id="SVGID_2_" cx="611.2925" cy="540.1316" r="254.7349" gradientUnits="userSpaceOnUse">
		<stop  offset="9.735577e-03" style="stop-color:#FCCA45"/>
		<stop  offset="0.8944" style="stop-color:#E59E03"/>
	</radialGradient>
	<circle class="st5" cx="611.3" cy="540.1" r="254.7"/>
	<g>
		<path class="st6" d="M224.7,789.6c-4.1-4.9-7.9-10.2-11.3-15.5c-4.9-7.7-9.3-15.8-12.9-24.2l-1.3-3.1l311.4-312.4l128.8,75.4
			L911,353.5l-52.6-25.9l166.7-13.5l-71.5,131.5l-10-49L634.4,623l-120.2-83.3L228,793.6L224.7,789.6z"/>
		<path class="st4" d="M1016.4,319.9c-20.2,37.1-40.4,74.2-60.6,111.3c-2.9-14.4-5.9-28.8-8.8-43.2
			c-104.2,76.3-208.4,152.6-312.7,228.9c-40.2-27.8-80.4-55.7-120.5-83.5c-95.1,84.4-190.2,168.7-285.2,253.1
			c-3.6-4.4-7.3-9.4-11-15c-5.4-8.4-9.5-16.4-12.5-23.5C307.1,645.5,409.2,543,511.3,440.6c42.7,25,85.3,49.9,128,74.9
			c94.1-54.1,188.2-108.2,282.3-162.3c-14.9-7.3-29.8-14.7-44.7-22C923.4,327.4,969.9,323.6,1016.4,319.9 M1034,308.4l-18.4,1.5
			l-69.7,5.6l-69.7,5.6l-36.2,2.9l32.6,16l25.5,12.6l2.3,1.2L639.3,503.9l-53-31l-70-41l-6.7-3.9l-5.5,5.5L351.1,587.2L198,740.8
			l-4.8,4.8l2.7,6.2c3.7,8.7,8.2,17.1,13.3,25c3.6,5.5,7.5,10.9,11.7,16l6.6,8l7.8-6.9L514.5,546l66.4,46.1l47.6,33l5.9,4.1l5.7-4.2
			l132.1-96.7l167.9-123l2.6,12.5l3.2,15.5l5.5,26.9l13.1-24.1l30.3-55.7l30.3-55.7L1034,308.4L1034,308.4z"/>
	</g>
	<g>
		<polygon class="st7" points="215.5,801.4 512.5,545.9 633.9,627.7 692.8,589.1 1028,801.9 		"/>
		<path class="st4" d="M512.9,551.6c40.3,27.2,80.7,54.3,121,81.5c19.6-12.9,39.3-25.7,58.9-38.6
			c106.6,67.6,213.2,135.3,319.7,202.9c-261.6-0.2-523.3-0.3-784.9-0.5C322.7,715.2,417.8,633.4,512.9,551.6 M512.2,540.3l-5.2,4.5
			l-35,30.1L221.7,790.1l-18.4,15.8l24.2,0l392.5,0.2l392.5,0.2l31,0l-26.2-16.6L857.5,688.4L697.6,586.9l-4.9-3.1l-4.9,3.2
			l-19.6,12.9L634,622.3l-55.5-37.4l-60.5-40.8L512.2,540.3L512.2,540.3z"/>
	</g>
	
		<linearGradient id="SVGID_3_" gradientUnits="userSpaceOnUse" x1="771.7729" y1="551.5911" x2="771.7729" y2="797.4152" gradientTransform="matrix(-1 0 0 1 1393.0413 0)">
		<stop  offset="0" style="stop-color:#FFFFFF"/>
		<stop  offset="1" style="stop-color:#000000"/>
	</linearGradient>
	<path class="st8" d="M1013.7,797.4c-107-67.6-213.9-135.3-320.9-202.9c-19.6,12.9-39.3,25.7-58.9,38.6
		c-40.3-27.2-80.7-54.3-121-81.5c-94.7,81.3-189.4,162.5-284.1,243.8C490.4,796.1,752.1,796.7,1013.7,797.4z"/>
	<rect x="227.6" y="786.4" class="st4" width="784.9" height="228.6"/>
</g>
<g id="Layer_3">
	<g>
		<path class="st0" d="M333.2,876.1c-4.5-3.7-9.1-6.4-13.6-8.2c-4.5-1.8-8.9-2.7-13.2-2.7c-5.4,0-9.8,1.3-13.2,3.8
			c-3.4,2.6-5.1,5.9-5.1,10c0,2.8,0.9,5.2,2.6,7c1.7,1.8,3.9,3.4,6.7,4.8c2.8,1.3,5.9,2.5,9.4,3.5c3.5,1,6.9,2.1,10.3,3.2
			c13.6,4.5,23.6,10.6,29.9,18.2c6.3,7.6,9.5,17.5,9.5,29.7c0,8.2-1.4,15.7-4.1,22.3c-2.8,6.7-6.8,12.4-12.1,17.1
			c-5.3,4.8-11.8,8.4-19.6,11.1c-7.7,2.6-16.5,3.9-26.3,3.9c-20.3,0-39.1-6-56.4-18.1l17.9-33.6c6.2,5.5,12.4,9.6,18.5,12.3
			c6.1,2.7,12.1,4,18.1,4c6.8,0,11.9-1.6,15.2-4.7c3.3-3.1,5-6.7,5-10.6c0-2.4-0.4-4.5-1.3-6.3c-0.9-1.8-2.3-3.4-4.3-4.9
			c-2-1.5-4.6-2.9-7.8-4.1c-3.2-1.3-7.1-2.7-11.6-4.3c-5.4-1.7-10.7-3.6-15.9-5.6c-5.2-2.1-9.8-4.8-13.8-8.2s-7.3-7.7-9.8-12.9
			c-2.5-5.2-3.7-11.7-3.7-19.7c0-7.9,1.3-15.1,3.9-21.6c2.6-6.5,6.3-12,11.1-16.6c4.8-4.6,10.6-8.2,17.4-10.7
			c6.9-2.6,14.6-3.8,23.1-3.8c7.9,0,16.2,1.1,24.9,3.3c8.7,2.2,17,5.4,24.9,9.7L333.2,876.1z"/>
		<path class="st0" d="M372.4,915.3c0-11.9,2.2-23,6.6-33.3c4.4-10.3,10.5-19.3,18.3-26.9c7.8-7.7,17.1-13.7,28-18
			c10.9-4.3,22.8-6.5,35.9-6.5c12.9,0,24.8,2.2,35.7,6.5c10.9,4.3,20.3,10.3,28.2,18c7.9,7.7,14,16.6,18.4,26.9
			c4.4,10.3,6.6,21.4,6.6,33.3c0,11.9-2.2,23-6.6,33.3c-4.4,10.3-10.5,19.3-18.4,26.9c-7.9,7.7-17.3,13.7-28.2,18
			c-10.9,4.3-22.8,6.5-35.7,6.5c-13.1,0-25-2.2-35.9-6.5s-20.2-10.3-28-18c-7.8-7.7-13.9-16.6-18.3-26.9
			C374.6,938.3,372.4,927.2,372.4,915.3z M416,915.3c0,6.4,1.2,12.3,3.6,17.7c2.4,5.4,5.7,10.1,9.8,14c4.1,4,8.9,7.1,14.4,9.3
			c5.5,2.2,11.2,3.3,17.3,3.3c6.1,0,11.9-1.1,17.3-3.3c5.5-2.2,10.3-5.3,14.5-9.3c4.2-4,7.5-8.7,9.9-14c2.4-5.4,3.6-11.3,3.6-17.7
			c0-6.4-1.2-12.3-3.6-17.7c-2.4-5.4-5.7-10.1-9.9-14c-4.2-4-9-7.1-14.5-9.3c-5.5-2.2-11.2-3.3-17.3-3.3c-6.1,0-11.9,1.1-17.3,3.3
			c-5.5,2.2-10.3,5.3-14.4,9.3c-4.1,4-7.4,8.7-9.8,14C417.2,903,416,908.9,416,915.3z"/>
		<path class="st0" d="M615.1,835.1v125.1h50v35.3h-91.7V835.1H615.1z"/>
		<path class="st0" d="M788.6,967.6H729l-9.6,27.9h-44.5L736,835.1h45.5l61.1,160.4h-44.5L788.6,967.6z M777.5,935.9l-18.7-53.4
			L740,935.9H777.5z"/>
		<path class="st0" d="M991.3,995.5h-51.9l-39.8-61.7v61.7h-41.7V835.1h64.9c8.9,0,16.7,1.3,23.4,3.9c6.7,2.6,12.2,6.2,16.5,10.7
			c4.3,4.5,7.6,9.8,9.8,15.7c2.2,6,3.3,12.3,3.3,19.2c0,12.2-2.9,22.1-8.8,29.7c-5.9,7.6-14.6,12.7-26.1,15.4L991.3,995.5z
			 M899.6,906.8h7.9c8.2,0,14.5-1.7,18.9-5.1c4.4-3.4,6.6-8.3,6.6-14.7c0-6.4-2.2-11.3-6.6-14.7c-4.4-3.4-10.7-5.1-18.9-5.1h-7.9
			V906.8z"/>
		<path class="st0" d="M285,1065.4c-2.6-2.1-5.1-3.6-7.7-4.6c-2.6-1-5-1.5-7.4-1.5c-3,0-5.5,0.7-7.4,2.2c-1.9,1.4-2.9,3.3-2.9,5.6
			c0,1.6,0.5,2.9,1.4,4c1,1,2.2,1.9,3.8,2.7c1.6,0.8,3.3,1.4,5.3,2c2,0.6,3.9,1.2,5.8,1.8c7.7,2.6,13.3,6,16.9,10.3
			c3.6,4.3,5.3,9.9,5.3,16.8c0,4.6-0.8,8.9-2.3,12.6c-1.6,3.8-3.8,7-6.8,9.7c-3,2.7-6.7,4.8-11.1,6.2c-4.4,1.5-9.3,2.2-14.8,2.2
			c-11.5,0-22.1-3.4-31.8-10.2l10.1-19c3.5,3.1,7,5.4,10.5,7c3.4,1.5,6.8,2.3,10.2,2.3c3.8,0,6.7-0.9,8.6-2.6c1.9-1.8,2.8-3.8,2.8-6
			c0-1.4-0.2-2.5-0.7-3.5c-0.5-1-1.3-1.9-2.4-2.8c-1.1-0.8-2.6-1.6-4.4-2.3c-1.8-0.7-4-1.5-6.5-2.4c-3-1-6-2-9-3.2
			c-2.9-1.2-5.5-2.7-7.8-4.6s-4.1-4.3-5.5-7.3c-1.4-2.9-2.1-6.6-2.1-11.1c0-4.5,0.7-8.5,2.2-12.2c1.5-3.6,3.6-6.8,6.2-9.4
			c2.7-2.6,6-4.6,9.9-6.1c3.9-1.4,8.2-2.2,13-2.2c4.5,0,9.2,0.6,14.1,1.9c4.9,1.2,9.6,3.1,14.1,5.5L285,1065.4z"/>
		<path class="st0" d="M376.5,1072.5c-5.4-6.6-12.2-10-20.2-10c-3.5,0-6.8,0.6-9.8,1.9c-3,1.3-5.6,3-7.7,5.2
			c-2.2,2.2-3.9,4.8-5.1,7.9c-1.2,3-1.9,6.3-1.9,9.9c0,3.6,0.6,6.9,1.9,10c1.2,3,3,5.7,5.2,7.9c2.2,2.2,4.8,4,7.7,5.3
			c3,1.3,6.2,1.9,9.6,1.9c7.5,0,14.3-3.2,20.3-9.6v27.9l-2.4,0.8c-3.6,1.3-7,2.2-10.1,2.8c-3.1,0.6-6.2,0.9-9.3,0.9
			c-6.2,0-12.2-1.2-18-3.5c-5.7-2.4-10.8-5.7-15.1-10c-4.4-4.3-7.9-9.4-10.5-15.3c-2.6-5.9-4-12.3-4-19.3c0-7,1.3-13.4,3.9-19.2
			c2.6-5.8,6.1-10.8,10.5-15c4.4-4.2,9.4-7.5,15.2-9.9c5.8-2.4,11.8-3.5,18.1-3.5c3.6,0,7.1,0.4,10.6,1.1c3.5,0.8,7.1,1.9,11,3.5
			V1072.5z"/>
		<path class="st0" d="M386.9,1087.5c0-6.7,1.2-13,3.7-18.8c2.5-5.8,5.9-10.9,10.3-15.2c4.4-4.3,9.7-7.7,15.8-10.2
			c6.1-2.4,12.9-3.7,20.2-3.7c7.3,0,14,1.2,20.2,3.7c6.2,2.4,11.5,5.8,15.9,10.2s7.9,9.4,10.4,15.2c2.5,5.8,3.7,12.1,3.7,18.8
			c0,6.7-1.2,13-3.7,18.8c-2.5,5.8-5.9,10.9-10.4,15.2s-9.8,7.7-15.9,10.2c-6.2,2.4-12.9,3.7-20.2,3.7c-7.4,0-14.1-1.2-20.2-3.7
			c-6.1-2.4-11.4-5.8-15.8-10.2c-4.4-4.3-7.9-9.4-10.3-15.2C388.2,1100.5,386.9,1094.3,386.9,1087.5z M411.5,1087.5
			c0,3.6,0.7,6.9,2,10c1.4,3,3.2,5.7,5.5,7.9c2.3,2.2,5,4,8.1,5.2c3.1,1.2,6.3,1.9,9.8,1.9c3.4,0,6.7-0.6,9.8-1.9
			c3.1-1.2,5.8-3,8.2-5.2c2.4-2.2,4.2-4.9,5.6-7.9c1.4-3,2-6.4,2-10c0-3.6-0.7-6.9-2-10c-1.4-3-3.2-5.7-5.6-7.9
			c-2.4-2.2-5.1-4-8.2-5.2c-3.1-1.2-6.3-1.9-9.8-1.9c-3.4,0-6.7,0.6-9.8,1.9c-3.1,1.2-5.8,3-8.1,5.2c-2.3,2.2-4.2,4.9-5.5,7.9
			C412.2,1080.6,411.5,1083.9,411.5,1087.5z"/>
		<path class="st0" d="M575.8,1132.8h-29.3L524,1098v34.8h-23.5v-90.6h36.6c5,0,9.5,0.7,13.2,2.2c3.8,1.5,6.9,3.5,9.3,6.1
			c2.4,2.6,4.3,5.5,5.5,8.9c1.2,3.4,1.9,7,1.9,10.8c0,6.9-1.7,12.5-5,16.8c-3.3,4.3-8.2,7.2-14.7,8.7L575.8,1132.8z M524,1082.7h4.4
			c4.6,0,8.2-1,10.7-2.9c2.5-1.9,3.7-4.7,3.7-8.3s-1.2-6.4-3.7-8.3c-2.5-1.9-6-2.9-10.7-2.9H524V1082.7z"/>
		<path class="st0" d="M635.5,1062.2h-28v15.1h26.4v19.9h-26.4v15.6h28v19.9H584v-90.6h51.5V1062.2z"/>
		<path class="st0" d="M716,1072.5c-5.4-6.6-12.2-10-20.2-10c-3.5,0-6.8,0.6-9.8,1.9c-3,1.3-5.6,3-7.7,5.2c-2.2,2.2-3.9,4.8-5.1,7.9
			c-1.2,3-1.9,6.3-1.9,9.9c0,3.6,0.6,6.9,1.9,10c1.2,3,3,5.7,5.2,7.9c2.2,2.2,4.8,4,7.7,5.3c3,1.3,6.2,1.9,9.6,1.9
			c7.5,0,14.3-3.2,20.3-9.6v27.9l-2.4,0.8c-3.6,1.3-7,2.2-10.1,2.8c-3.1,0.6-6.2,0.9-9.3,0.9c-6.2,0-12.2-1.2-18-3.5
			c-5.7-2.4-10.8-5.7-15.1-10c-4.4-4.3-7.9-9.4-10.5-15.3c-2.6-5.9-4-12.3-4-19.3c0-7,1.3-13.4,3.9-19.2c2.6-5.8,6.1-10.8,10.5-15
			c4.4-4.2,9.4-7.5,15.2-9.9c5.8-2.4,11.8-3.5,18.1-3.5c3.6,0,7.1,0.4,10.6,1.1c3.5,0.8,7.1,1.9,11,3.5V1072.5z"/>
		<path class="st0" d="M786.9,1117.1h-33.6l-5.4,15.7h-25.1l34.5-90.6h25.7l34.5,90.6h-25.1L786.9,1117.1z M780.6,1099.2l-10.6-30.2
			l-10.6,30.2H780.6z"/>
		<path class="st0" d="M901.4,1132.8h-29.3l-22.5-34.8v34.8H826v-90.6h36.6c5,0,9.5,0.7,13.2,2.2c3.8,1.5,6.9,3.5,9.3,6.1
			c2.4,2.6,4.3,5.5,5.5,8.9c1.2,3.4,1.9,7,1.9,10.8c0,6.9-1.7,12.5-5,16.8c-3.3,4.3-8.2,7.2-14.7,8.7L901.4,1132.8z M849.6,1082.7
			h4.4c4.6,0,8.2-1,10.7-2.9c2.5-1.9,3.7-4.7,3.7-8.3s-1.2-6.4-3.7-8.3c-2.5-1.9-6-2.9-10.7-2.9h-4.4V1082.7z"/>
		<path class="st0" d="M909.5,1042.3h34.8c6.2,0,12,1.2,17.4,3.7c5.4,2.5,10.1,5.8,14.2,9.9c4,4.1,7.2,8.9,9.6,14.4
			c2.3,5.5,3.5,11.2,3.5,17.2c0,5.9-1.1,11.6-3.4,17.1c-2.3,5.5-5.4,10.3-9.5,14.5c-4,4.2-8.8,7.5-14.2,10
			c-5.4,2.5-11.2,3.7-17.5,3.7h-34.8V1042.3z M933.1,1112.9h5.4c4.1,0,7.7-0.6,10.9-1.9c3.2-1.3,5.9-3,8.1-5.3c2.2-2.2,3.9-4.9,5-8
			c1.2-3.1,1.7-6.5,1.7-10.2c0-3.6-0.6-7-1.8-10.1c-1.2-3.1-2.9-5.8-5.1-8c-2.2-2.2-4.9-4-8.1-5.3c-3.2-1.3-6.8-1.9-10.8-1.9h-5.4
			V1112.9z"/>
	</g>
</g>
</svg>
